# xmcd
#
# Track frame offsets: 
#        150
#        20955
#        37980
#        55266
#        74147
#        89115
#        106820
#        123257
#        137075
#        151693
#        177206
#        199897
#        252910
#        270641
#
# Disc length: 3896 seconds
#
# Revision: 0
# Processed by: cddbd v1.5.2PL0 Copyright (c) Steve Scherf et al.
# Submitted via: ExactAudioCopyFreeDBPlugin 1.0
#
DISCID=cb0f360e
DTITLE=Various Artist - 音乐天堂：号外
DYEAR=1900
DGENRE=
TTITLE0=左小祖咒 - 乌兰巴托的夜
TTITLE1=新东西原声合唱团 - 翠鸟
TTITLE2=周云蓬 - 空水杯
TTITLE3=李志 - 梵高先生
TTITLE4=Sarah Khlder - Mermaid Song
TTITLE5=Runrlg - The Crowded River
TTITLE6=Brlgltte Fonlalne - Les Filles D'Aujourd'Hui
TTITLE7=Scott McKenzle - San Francisco
TTITLE8=Teddy Thompson - I Don't Want To Say Goodbye
TTITLE9=Lou Reed - Pale Blue Eyes
TTITLE10=Ms. John Soda - No.One
TTITLE11=The Doors - The End
TTITLE12=John WIIIim - Theme From Schindler's List
TTITLE13=闫月 - 她！
EXTD=
EXTT0=
EXTT1=
EXTT2=
EXTT3=
EXTT4=
EXTT5=
EXTT6=
EXTT7=
EXTT8=
EXTT9=
EXTT10=
EXTT11=
EXTT12=
EXTT13=
PLAYORDER=
